<svg id="Layer_1" data-name="Layer 1" xmlns="http://www.w3.org/2000/svg" viewBox="0 0 100.61 85.47"><title>disenio</title><rect y="7.33" width="87.72" height="56.36"/><polygon points="61.86 81.66 28.57 81.66 37.62 69.56 52.81 69.56 61.86 81.66" style="fill:#adadad"/><path d="M89.51,82.14H14.66a6.16,6.16,0,0,1-6.43-5.86V70.41H95.94v5.87A6.17,6.17,0,0,1,89.51,82.14Z" transform="translate(-8.23 -6.72)" style="fill:#dbdbdb"/><rect x="27.35" y="81.66" width="35.73" height="3.81"/><rect x="2.57" y="9.91" width="42.64" height="51.21" style="fill:#fd7b53"/><rect x="45.21" y="9.91" width="39.93" height="51.21" style="fill:#fd6e49"/><path d="M74.11,28.82s-8.37-1-10.67,3.77-3.35,13.6-5.65,14S74.11,50.37,80.18,37,74.11,28.82,74.11,28.82Z" transform="translate(-8.23 -6.72)" style="fill:#3c2415"/><path d="M83.1,21.78a130.43,130.43,0,0,1,11-7.53,125.11,125.11,0,0,1,14.79-7.53,72.71,72.71,0,0,1-9.77,12.41c-4.95,4.88-9.9,9.69-9.9,9.69Z" transform="translate(-8.23 -6.72)" style="fill:#3c2415"/><path d="M101.37,11.32S90.29,16.69,83,23.38s2,.84,2,.84S94.19,15.57,101.37,11.32Z" transform="translate(-8.23 -6.72)" style="fill:#896956"/><rect x="75.88" y="23.71" width="11.87" height="10.19" transform="translate(-7.73 52.27) rotate(-39.76)" style="fill:#d8d8d8"/><rect x="76.8" y="26.24" width="3.96" height="10.19" transform="translate(-10.05 50.91) rotate(-39.76)" style="fill:#bf5543"/><polygon points="74.74 15.48 69.72 19.59 70.9 20.99 75.78 16.8 74.74 15.48" style="fill:#fff"/><path d="M72.92,30s-5.57-.91-7.39,2.37S68.6,33.84,72.92,30Z" transform="translate(-8.23 -6.72)" style="fill:#a0887c"/></svg>