<svg xmlns="http://www.w3.org/2000/svg" viewBox="0 0 239.16 214.83"><title>fondoproject</title><g style="isolation:isolate"><g id="Layer_1" data-name="Layer 1"><path d="M3.42,215.49H242.58l-.21-205C194.53,55.08,61.21,163.86,3.42,215.49Z" transform="translate(-3.42 -0.66)" style="fill:#faede5;opacity:0.87;mix-blend-mode:multiply"/><path d="M223.4,139.15c.39,7.09-4.67,13.18-11.3,13.6s-12.34-5-12.73-12.08,4.67-13.18,11.3-13.6S223,132.06,223.4,139.15Z" transform="translate(-3.42 -0.66)" style="fill:#cc0e0e"/><path d="M242.42,10.39V86.64c-1.21.1-2.44.14-3.68.14-29.89,0-54.12-25.89-54.12-57.83A60.63,60.63,0,0,1,191.53.66H232.8a9.64,9.64,0,0,1,2.48.35A9.77,9.77,0,0,1,242.42,10.39Z" transform="translate(-3.42 -0.66)" style="fill:#cc0e0e"/><path d="M242.42,10.39V86.64c-1.21.1-2.44.14-3.68.14-29.89,0-54.12-25.89-54.12-57.83A60.63,60.63,0,0,1,191.53.66H232.8a9.64,9.64,0,0,1,2.48.35A9.77,9.77,0,0,1,242.42,10.39Z" transform="translate(-3.42 -0.66)" style="fill:#89d2be"/><path d="M212.1,152.75c-6.64.42-12.34-5-12.73-12.08s4.67-13.18,11.3-13.6,12.33,5,12.73,12.08S218.73,152.33,212.1,152.75Z" transform="translate(-3.42 -0.66)" style="fill:#fd6e49"/><path d="M232.75,56.33A1.27,1.27,0,1,1,234,57.69,1.31,1.31,0,0,1,232.75,56.33Z" transform="translate(-3.42 -0.66)" style="fill:#233833"/><path d="M232.75,37.88A1.27,1.27,0,1,1,234,39.24,1.31,1.31,0,0,1,232.75,37.88Z" transform="translate(-3.42 -0.66)" style="fill:#233833"/><path d="M232.75,19.43A1.27,1.27,0,1,1,234,20.79,1.31,1.31,0,0,1,232.75,19.43Z" transform="translate(-3.42 -0.66)" style="fill:#233833"/><path d="M235.28,1a1.27,1.27,0,1,1-2.53,0,.88.88,0,0,1,.05-.33A9.64,9.64,0,0,1,235.28,1Z" transform="translate(-3.42 -0.66)" style="fill:#233833"/></g></g></svg>