<svg id="Layer_1" data-name="Layer 1" xmlns="http://www.w3.org/2000/svg" viewBox="0 0 409.78 385.64"><title>iluscontacto</title><g id="freepik--background-complete--inject-116"><polygon points="114.17 117.02 111.77 117.02 111.77 115.42 112.57 115.42 112.57 114.62 114.17 114.62 114.17 117.02" style="fill:#ebebeb"/><path d="M107.06,119.35h-3.24v-1.6h3.24Zm-6.48,0H97.35v-1.6h3.23Zm-6.47,0H90.87v-1.6h3.24Zm-6.48,0H84.39v-1.6h3.24Zm-6.48,0H77.91v-1.6h3.24Zm-6.47,0H71.44v-1.6h3.24Zm-6.48,0H65v-1.6h3.24Zm-6.48,0H58.48v-1.6h3.24Zm-6.48,0H52v-1.6h3.24Zm-6.47,0H45.53v-1.6h3.24Zm-6.48,0H39.05v-1.6h3.24Zm-6.48,0H32.57v-1.6h3.24Zm-6.48,0H26.1v-1.6h3.23Z" transform="translate(1.47 -2.33)" style="fill:#ebebeb"/><polygon points="24.33 117.02 21.93 117.02 21.93 114.62 23.53 114.62 23.53 115.42 24.33 115.42 24.33 117.02" style="fill:#ebebeb"/><path d="M22.06,113.72h-1.6v-3.24h1.6Zm0-6.48h-1.6V104h1.6Zm0-6.48h-1.6V97.52h1.6Zm0-6.48h-1.6V91h1.6Zm0-6.47h-1.6V84.57h1.6Zm0-6.48h-1.6V78.09h1.6Zm0-6.48h-1.6V71.61h1.6Zm0-6.48h-1.6V65.14h1.6Zm0-6.47h-1.6V58.66h1.6Zm0-6.48h-1.6V52.18h1.6Zm0-6.48h-1.6V45.7h1.6Zm0-6.48h-1.6V39.23h1.6Zm0-6.47h-1.6V32.75h1.6Z" transform="translate(1.47 -2.33)" style="fill:#ebebeb"/><polygon points="23.53 27.18 21.93 27.18 21.93 24.78 24.33 24.78 24.33 26.38 23.53 26.38 23.53 27.18" style="fill:#ebebeb"/><path d="M107.06,28.71h-3.24v-1.6h3.24Zm-6.48,0H97.35v-1.6h3.23Zm-6.47,0H90.87v-1.6h3.24Zm-6.48,0H84.39v-1.6h3.24Zm-6.48,0H77.91v-1.6h3.24Zm-6.47,0H71.44v-1.6h3.24Zm-6.48,0H65v-1.6h3.24Zm-6.48,0H58.48v-1.6h3.24Zm-6.48,0H52v-1.6h3.24Zm-6.47,0H45.53v-1.6h3.24Zm-6.48,0H39.05v-1.6h3.24Zm-6.48,0H32.57v-1.6h3.24Zm-6.48,0H26.1v-1.6h3.23Z" transform="translate(1.47 -2.33)" style="fill:#ebebeb"/><polygon points="114.17 27.18 112.57 27.18 112.57 26.38 111.77 26.38 111.77 24.78 114.17 24.78 114.17 27.18" style="fill:#ebebeb"/><path d="M112.7,113.72h-1.6v-3.24h1.6Zm0-6.48h-1.6V104h1.6Zm0-6.48h-1.6V97.52h1.6Zm0-6.48h-1.6V91.05h1.6Zm0-6.47h-1.6V84.57h1.6Zm0-6.48h-1.6V78.09h1.6Zm0-6.48h-1.6V71.61h1.6Zm0-6.48h-1.6V65.14h1.6Zm0-6.47h-1.6V58.66h1.6Zm0-6.48h-1.6V52.18h1.6Zm0-6.48h-1.6V45.7h1.6Zm0-6.48h-1.6V39.23h1.6Zm0-6.47h-1.6V32.75h1.6Z" transform="translate(1.47 -2.33)" style="fill:#ebebeb"/><rect x="17.08" y="110.58" width="11.3" height="11.3" style="fill:#fff"/><path d="M27.7,125H14.81V112.11H27.7Zm-11.29-1.6H26.1v-9.69H16.41Z" transform="translate(1.47 -2.33)" style="fill:#ebebeb"/><rect x="17.08" y="65.25" width="11.3" height="11.3" style="fill:#fff"/><path d="M27.7,79.68H14.81V66.78H27.7Zm-11.29-1.6H26.1v-9.7H16.41Z" transform="translate(1.47 -2.33)" style="fill:#ebebeb"/><rect x="17.08" y="19.93" width="11.3" height="11.3" style="fill:#fff"/><path d="M27.7,34.36H14.81V21.46H27.7Zm-11.29-1.6H26.1v-9.7H16.41Z" transform="translate(1.47 -2.33)" style="fill:#ebebeb"/><rect x="107.72" y="110.58" width="11.3" height="11.3" style="fill:#fff"/><path d="M118.35,125h-12.9V112.11h12.9Zm-11.3-1.6h9.7v-9.69h-9.7Z" transform="translate(1.47 -2.33)" style="fill:#ebebeb"/><rect x="107.72" y="65.25" width="11.3" height="11.3" style="fill:#fff"/><path d="M118.35,79.68h-12.9V66.78h12.9Zm-11.3-1.6h9.7v-9.7h-9.7Z" transform="translate(1.47 -2.33)" style="fill:#ebebeb"/><rect x="107.72" y="19.93" width="11.3" height="11.3" style="fill:#fff"/><path d="M118.35,34.36h-12.9V21.46h12.9Zm-11.3-1.6h9.7v-9.7h-9.7Z" transform="translate(1.47 -2.33)" style="fill:#ebebeb"/><rect x="62.4" y="19.93" width="11.3" height="11.3" style="fill:#fff"/><path d="M73,34.36H60.1V21.46H73Zm-11.3-1.6h9.7v-9.7H61.7Z" transform="translate(1.47 -2.33)" style="fill:#ebebeb"/><rect x="62.4" y="110.58" width="11.3" height="11.3" style="fill:#fff"/><path d="M73,125H60.1V112.11H73Zm-11.3-1.6h9.7v-9.69H61.7Z" transform="translate(1.47 -2.33)" style="fill:#ebebeb"/><path d="M92,65H90.41c-4.5-13.6-7.09-19.19-14.68-19.19h-1v54.91h7.09v1.75H51.39v-1.75h7.09V45.78H57.4C49.81,45.78,47,52,42.71,65H41.13L42,44H91.23Z" transform="translate(1.47 -2.33)" style="fill:#ebebeb"/><rect x="18.58" y="251.7" width="26.48" height="11.19" style="fill:#ebebeb"/><rect x="156.94" y="164.33" width="26.48" height="11.19" style="fill:#ebebeb"/><rect x="3.81" y="265.81" width="26.48" height="11.19" style="fill:#ebebeb"/><rect x="374.65" y="265.81" width="26.48" height="11.19" style="fill:#ebebeb"/><rect x="359.88" width="26.48" height="11.19" style="fill:#ebebeb"/><rect x="374.65" y="14.11" width="26.48" height="11.19" style="fill:#ebebeb"/><rect x="18.58" width="26.48" height="11.19" style="fill:#ebebeb"/><rect x="208.89" y="84.73" width="192.23" height="8.25" style="fill:#ebebeb"/><polygon points="236.84 125.48 229.36 125.48 226.35 92.99 236.84 92.99 236.84 125.48" style="fill:#ebebeb"/><polygon points="373.18 125.48 380.67 125.48 383.67 92.99 373.18 92.99 373.18 125.48" style="fill:#ebebeb"/><polygon points="226.35 92.99 236.84 92.99 236.84 104.18 227.38 104.18 226.35 92.99" style="fill:#dbdbdb"/><polygon points="383.67 92.99 382.64 104.18 373.18 104.18 373.18 92.99 383.67 92.99" style="fill:#dbdbdb"/><path d="M277,37.55c-8.53,11.55-17.43,25-19.59,39.44,0,.22.32.29.37.08a85.8,85.8,0,0,1,3.77-11.6c5.61-1.55,11.12-2.81,14.06-8.38,3-5.72,2.62-13.18,2.05-19.42C277.66,37.34,277.21,37.32,277,37.55Z" transform="translate(1.47 -2.33)" style="fill:#ebebeb"/><path d="M261.68,65.36c3.83-8.6,8.75-17.24,15-24.31,0,0,.11,0,.07.07a103.64,103.64,0,0,0-10.24,16.1c2.82-2.86,5.92-5.43,8.59-8.47a.05.05,0,0,1,.08,0,.05.05,0,0,1,0,.08h0c-2.66,3.19-5.56,6.65-9,9-.93,1.72-1.86,3.43-2.81,5.15.23-.13.47-.24.71-.36,0,0,.08,0,0,.06-.27.13-.53.27-.8.39-.45.81-.9,1.63-1.36,2.44C261.85,65.7,261.6,65.54,261.68,65.36Z" transform="translate(1.47 -2.33)" style="fill:#a6a6a6"/><path d="M264.53,62.36A50.09,50.09,0,0,0,271.08,58c.05,0,.13,0,.08.08a34.61,34.61,0,0,1-6.54,4.45C264.52,62.57,264.42,62.42,264.53,62.36Z" transform="translate(1.47 -2.33)" style="fill:#a6a6a6"/><path d="M256.51,76.86c0,.18.32.17.31,0,.05-4.78,0-9.57.08-14.36,1.22-2.47,3.85-3.83,5.67-5.81A24.85,24.85,0,0,0,266,52a33.84,33.84,0,0,0,3.95-13.16c.5-5.1-1.43-21.94-3.58-21.36-1.12.31-4.73,8.65-5.69,11.4a79.16,79.16,0,0,0-3.39,14C255.51,54,255.66,65.56,256.51,76.86Z" transform="translate(1.47 -2.33)" style="fill:#ebebeb"/><path d="M256.48,56.28h0c.26-6,1.62-12.13,2.89-18,1.38-6.31,3-12.24,6.22-17.87a.1.1,0,0,1,.14,0,.08.08,0,0,1,0,.09,67.08,67.08,0,0,0-5,13.72c.22-.34.48-.66.71-1,.09-.13.29,0,.21.12a8.34,8.34,0,0,1-1,1.43h0c-1.12,4.51-1.92,9.12-2.61,13.72l.16-.18s.09,0,.07.06a4.47,4.47,0,0,1-.28.45c-.34,2.34-.66,4.67-1,7a32.78,32.78,0,0,0,9.71-12.9h0c-2,5.35-5.05,10.11-9.81,13.36-.09.62-.18,1.24-.26,1.86,0,.13-.23.1-.23,0,0-.55,0-1.1.05-1.65a.13.13,0,0,1,0-.18Z" transform="translate(1.47 -2.33)" style="fill:#a6a6a6"/><path d="M258.44,47.53a96.88,96.88,0,0,0,8.47-14.59h.1A47.3,47.3,0,0,1,258.6,47.6C258.52,47.74,258.37,47.63,258.44,47.53Z" transform="translate(1.47 -2.33)" style="fill:#a6a6a6"/><path d="M262.66,31.77c1.31-2.33,2.7-4.59,3.94-7,0-.06.13,0,.1.06a35.8,35.8,0,0,1-3.84,7,.12.12,0,0,1-.17,0S262.66,31.79,262.66,31.77Z" transform="translate(1.47 -2.33)" style="fill:#a6a6a6"/><path d="M262.14,32.79Z" transform="translate(1.47 -2.33)" style="fill:#a6a6a6"/><path d="M254.18,64.63a48.77,48.77,0,0,1-1.12,9.4l.15,1a44.26,44.26,0,0,0,1.68-10.47.32.32,0,0,0,0-.33h0A68.88,68.88,0,0,0,253.83,50c-1.47-8.77-4.7-17.19-10.82-23.76a.43.43,0,0,0-.61,0l-.06.1c-2.47,6.27-1.61,13.76.49,20A37.14,37.14,0,0,0,247.7,56C249.8,58.92,252.47,61.41,254.18,64.63Z" transform="translate(1.47 -2.33)" style="fill:#ebebeb"/><path d="M243.76,29.24c5.79,9.4,9.82,20.55,10.32,31.66a.18.18,0,0,1-.35,0q-.21-1.5-.45-3h0a38.12,38.12,0,0,1-6.58-7.59s0-.11.08-.07a78.44,78.44,0,0,0,6.39,7c-.41-2.45-.91-4.86-1.49-7.25l-.46-.54c-.1-.12.07-.29.18-.17l.13.15a83,83,0,0,0-3-9.62c-1.47-1.76-3.12-3.28-4.19-5.4m.07,0c.87,1.21,1.7,2.43,2.68,3.55.39.45.82.87,1.23,1.31a75.49,75.49,0,0,0-4.75-9.89.13.13,0,0,1,.1-.15.14.14,0,0,1,.09,0Z" transform="translate(1.47 -2.33)" style="fill:#a6a6a6"/><path d="M244.93,40.84c1.87,2.52,4,4.93,5.75,7.53,0,.08-.06.15-.12.09a38.1,38.1,0,0,1-5.76-7.55C244.75,40.83,244.87,40.77,244.93,40.84Z" transform="translate(1.47 -2.33)" style="fill:#a6a6a6"/><path d="M250.94,49l.08.08c0,.06,0,.15-.09.09l-.08-.08C250.8,49,250.88,48.9,250.94,49Z" transform="translate(1.47 -2.33)" style="fill:#a6a6a6"/><path d="M233.78,44.94a28.83,28.83,0,0,0,6.12,14.35,15.11,15.11,0,0,0,5,3.87c2.14,1.06,4.39,2.29,6.61,3.16a43.09,43.09,0,0,1,2.35,8.32l.21-.74c-1.42-12.25-9.35-22.72-19.49-29.44a.48.48,0,0,0-.69,0A.45.45,0,0,0,233.78,44.94Z" transform="translate(1.47 -2.33)" style="fill:#ebebeb"/><path d="M237.29,48.56a.08.08,0,0,1,.1-.13,41.54,41.54,0,0,1,12.92,15.92c.07.17-.16.32-.25.15-.47-.83-.95-1.63-1.44-2.42h0c-2.31-.43-4.51-2.06-6.22-3.61-.05,0,0-.11.06-.07a14.2,14.2,0,0,0,2.93,2.06c1,.48,2,.78,2.94,1.16-.85-1.36-1.75-2.66-2.68-3.93a27.35,27.35,0,0,1-7-3.91c-.06,0,0-.16.07-.11a71.39,71.39,0,0,0,6.46,3.45,57.64,57.64,0,0,0-4.56-5.32c-.79-.41-1.59-.83-2.35-1.28-.06,0,0-.14,0-.11a8.58,8.58,0,0,1,1.8.88C239.24,50.37,238.29,49.45,237.29,48.56Z" transform="translate(1.47 -2.33)" style="fill:#a6a6a6"/><path d="M237.5,52.79a2.76,2.76,0,0,1,.39.28s0,.08,0,.06a2,2,0,0,1-.4-.23C237.37,52.86,237.43,52.75,237.5,52.79Z" transform="translate(1.47 -2.33)" style="fill:#a6a6a6"/><polygon points="267.97 84.73 247.09 84.73 248.11 71.05 248.51 66.58 266.36 66.58 266.75 71.05 267.97 84.73" style="fill:#dbdbdb"/><polygon points="266.75 71.05 248.11 71.05 248.51 66.58 266.36 66.58 266.75 71.05" style="fill:#c7c7c7"/><rect x="247.09" y="62.92" width="20.7" height="4.58" style="fill:#dbdbdb"/><rect x="306.2" y="35" width="12.52" height="49.7" style="fill:#c7c7c7"/><rect x="306.19" y="32.34" width="12.52" height="5.46" style="fill:#dbdbdb"/><rect x="306.19" y="44.81" width="12.52" height="2.03" style="fill:#dbdbdb"/><rect x="306.19" y="72.72" width="12.52" height="5.46" style="fill:#dbdbdb"/><rect x="318.71" y="26.73" width="8.75" height="57.97" style="fill:#dbdbdb"/><rect x="320.42" y="32.18" width="5.25" height="22.3" style="fill:#ebebeb"/><rect x="360.21" y="34.5" width="8.75" height="57.97" transform="translate(64.59 275.8) rotate(-45.33)" style="fill:#c7c7c7"/><rect x="364.98" y="55.3" width="5.25" height="22.3" transform="translate(63.38 278.83) rotate(-45.33)" style="fill:#dbdbdb"/><rect x="327.45" y="40.68" width="14.85" height="44.04" style="fill:#a6a6a6"/><rect x="327.46" y="75.94" width="14.85" height="4.1" style="fill:#c7c7c7"/><rect x="327.46" y="71.65" width="14.85" height="1.59" style="fill:#c7c7c7"/><rect x="271.26" y="60.91" width="41.38" height="10.26" transform="translate(117.59 305.95) rotate(-66.77)" style="fill:#a6a6a6"/><rect x="284.34" y="74.11" width="3.86" height="10.26" transform="translate(102.01 308.72) rotate(-66.77)" style="fill:#c7c7c7"/><rect x="294.05" y="51.5" width="3.86" height="10.26" transform="translate(128.67 303.95) rotate(-66.77)" style="fill:#c7c7c7"/><rect x="293.12" y="56.39" width="1.5" height="10.26" transform="translate(122.9 304.97) rotate(-66.77)" style="fill:#c7c7c7"/><polygon points="328.39 198.86 270.53 213.99 251.1 139.71 294.07 128.47 308.97 124.58 312.67 138.73 328.39 198.86" style="fill:#ebebeb"/><rect x="258" y="146.8" width="48.72" height="1.97" transform="matrix(0.97, -0.25, 0.25, 0.97, -26.73, 73.89)" style="fill:#dbdbdb"/><rect x="259.27" y="151.62" width="48.72" height="1.97" transform="matrix(0.97, -0.25, 0.25, 0.97, -27.91, 74.37)" style="fill:#dbdbdb"/><rect x="260.52" y="156.43" width="48.72" height="1.97" transform="matrix(0.97, -0.25, 0.25, 0.97, -29.08, 74.84)" style="fill:#dbdbdb"/><rect x="261.79" y="161.24" width="48.72" height="1.97" transform="matrix(0.97, -0.25, 0.25, 0.97, -30.26, 75.32)" style="fill:#dbdbdb"/><rect x="263.04" y="166.06" width="48.72" height="1.97" transform="matrix(0.97, -0.25, 0.25, 0.97, -31.43, 75.79)" style="fill:#dbdbdb"/><rect x="264.31" y="170.87" width="48.72" height="1.97" transform="matrix(0.97, -0.25, 0.25, 0.97, -32.61, 76.26)" style="fill:#dbdbdb"/><rect x="265.56" y="175.69" width="48.72" height="1.97" transform="matrix(0.97, -0.25, 0.25, 0.97, -33.79, 76.74)" style="fill:#dbdbdb"/><rect x="266.82" y="180.5" width="48.72" height="1.97" transform="matrix(0.97, -0.25, 0.25, 0.97, -34.96, 77.21)" style="fill:#dbdbdb"/><rect x="268.08" y="185.32" width="48.72" height="1.97" transform="matrix(0.97, -0.25, 0.25, 0.97, -36.14, 77.69)" style="fill:#dbdbdb"/><rect x="269.34" y="190.12" width="48.72" height="1.97" transform="matrix(0.97, -0.25, 0.25, 0.97, -37.32, 78.16)" style="fill:#dbdbdb"/><rect x="270.42" y="193.31" width="48.8" height="1.97" transform="translate(-37.69 77.4) rotate(-14.45)" style="fill:#dbdbdb"/><rect x="271.86" y="199.75" width="48.72" height="1.97" transform="matrix(0.97, -0.25, 0.25, 0.97, -39.67, 79.12)" style="fill:#dbdbdb"/><polygon points="343.76 220.29 284.04 223.63 279.75 146.97 324.09 144.49 340.29 158.24 343.76 220.29" style="fill:#ebebeb"/><polygon points="324.09 144.49 340.29 158.24 324.91 159.1 324.09 144.49" style="fill:#dbdbdb"/><rect x="284.87" y="160.89" width="33.25" height="1.97" transform="translate(-7.1 14.75) rotate(-3.2)" style="fill:#dbdbdb"/><rect x="285.14" y="165.87" width="33.25" height="1.97" transform="translate(-7.37 14.78) rotate(-3.2)" style="fill:#dbdbdb"/><rect x="285.44" y="170.83" width="33.25" height="1.97" transform="translate(-7.65 14.8) rotate(-3.2)" style="fill:#dbdbdb"/><rect x="285.69" y="175.36" width="48.72" height="1.97" transform="translate(-7.89 15.25) rotate(-3.2)" style="fill:#dbdbdb"/><rect x="285.97" y="180.33" width="48.72" height="1.97" transform="translate(-8.17 15.28) rotate(-3.2)" style="fill:#dbdbdb"/><rect x="286.24" y="185.3" width="48.72" height="1.97" transform="translate(-8.44 15.3) rotate(-3.2)" style="fill:#dbdbdb"/><rect x="286.53" y="190.27" width="48.72" height="1.97" transform="translate(-8.72 15.32) rotate(-3.2)" style="fill:#dbdbdb"/><rect x="286.81" y="195.24" width="48.72" height="1.97" transform="translate(-9 15.35) rotate(-3.2)" style="fill:#dbdbdb"/><rect x="287.08" y="200.21" width="48.72" height="1.97" transform="translate(-9.28 15.37) rotate(-3.2)" style="fill:#dbdbdb"/><rect x="287.36" y="205.17" width="48.72" height="1.97" transform="translate(-9.55 15.39) rotate(-3.2)" style="fill:#dbdbdb"/><rect x="287.64" y="210.14" width="48.72" height="1.97" transform="translate(-9.83 15.42) rotate(-3.2)" style="fill:#dbdbdb"/><rect x="287.92" y="215.11" width="48.72" height="1.97" transform="translate(-10.11 15.44) rotate(-3.2)" style="fill:#dbdbdb"/></g><g id="freepik--Desk--inject-116"><polygon points="0 360.43 50.62 360.19 101.24 360.1 202.47 359.94 303.7 360.1 354.32 360.19 404.94 360.43 354.32 360.68 303.7 360.77 202.47 360.93 101.24 360.77 50.62 360.68 0 360.43" style="fill:#263238"/></g><g id="freepik--Character--inject-116"><path d="M111.65,136c-6.16-13.82-19.53-22.89-32.38-19.45-27.57,7.37-23.82,49.05-43.62,76-23.92,32.56-24.21,59.93-3.39,63.9,23.32,4.44,45.11-20.57,42.63-72.95-1.55-32.76,5.36-44.36,14.23-46.88,6.52-1.85,13.8,6,13.8,6Z" transform="translate(1.47 -2.33)" style="fill:#263238"/><path d="M74.5,165.37c-.13,5.21.33,10.41.6,15.6s.66,10.36.82,15.53A153.71,153.71,0,0,1,75.71,212a75.62,75.62,0,0,1-2.39,15.17,39.63,39.63,0,0,1-6.38,13.75,44.65,44.65,0,0,1-11.41,10.3,34.18,34.18,0,0,1-14.59,5.12,30.86,30.86,0,0,1-7.86-.14,25.28,25.28,0,0,1-3.86-.84,13.84,13.84,0,0,1-3.65-1.5,20.11,20.11,0,0,0,7.38,3,31.7,31.7,0,0,0,8.07.68,34,34,0,0,0,8-1.41,36.33,36.33,0,0,0,7.47-3.29,42.73,42.73,0,0,0,6.62-4.71l1.5-1.36,1.45-1.41a30.24,30.24,0,0,0,2.71-3.06,41.47,41.47,0,0,0,6.89-14.49c2.72-10.33,2.79-21,2.13-31.35-.33-5.21-.9-10.39-1.53-15.56S74.92,170.55,74.5,165.37Z" transform="translate(1.47 -2.33)" style="fill:#263238"/><path d="M105.61,128a42.78,42.78,0,0,0-7.55-7.72,23.36,23.36,0,0,0-20-4.18,30.63,30.63,0,0,0-5,1.77,26,26,0,0,0-4.54,2.56,30.11,30.11,0,0,0-7,7.63,51.69,51.69,0,0,0-4.65,9.51c-2.57,6.66-4.35,13.7-6.43,20.67a142.47,142.47,0,0,1-7.54,20.62,141.39,141.39,0,0,1-11.37,18.75c-4.12,6-8.4,11.83-11.67,18.23a42.92,42.92,0,0,0-3.91,10l-.58,2.63c-.12.89-.18,1.79-.27,2.68l-.1,1.3v1.36l.06,2.71c-1.19-7.2.43-14.73,3.55-21.34s7.21-12.72,11.1-18.83a159.26,159.26,0,0,0,10.76-18.69,145.63,145.63,0,0,0,7.24-20.28c2.12-6.91,3.91-14,6.66-20.83a53.53,53.53,0,0,1,5.07-9.91,30.28,30.28,0,0,1,7.88-8,27.59,27.59,0,0,1,5-2.6,30.13,30.13,0,0,1,5.34-1.69,23.59,23.59,0,0,1,20.88,5.34A38.5,38.5,0,0,1,105.61,128Z" transform="translate(1.47 -2.33)" style="fill:#263238"/><path d="M117,138.57c0-2.63-2-6-3.67-6.39s-14.19,5.28-15.19,8.54,4.66,6,4.66,6Z" transform="translate(1.47 -2.33)" style="fill:#fd6e49"/><path d="M104.62,242.38c7.24,43.35,18.07,77.95,29.53,86.89,9.25,7.22,22.6,12.84,36.45,17.14a352.91,352.91,0,0,0,45.19,10.26c4.7.78,8.62,1.34,11.4,1.77,6.88,1,21.93-43.75,17.48-49.72-1-1.37-5.5-2.72-11.83-4.06-21.31-4.45-65.92-7.94-68.25-10.56s-23.86-34.22-41.17-58.54C111.3,218.54,100.61,218.34,104.62,242.38Z" transform="translate(1.47 -2.33)" style="fill:#f7a9a0"/><path d="M213.69,352.7c.83.47,12.61,6.77,19.95,9.25,5.48,1.86,21.4,6.78,24,.95,1.81-4-7.21-8-13.53-10.94-3.32-1.56-7.34-5.3-6.25-7.43,1.92-3.73,10.48.48,16.07,4.07,10.81,6.94,25.08,19.21,32.11,13.88,2.65-2-.15-6-4.34-10,6.87,4.74,14.24,8.71,17.28,6.59,1.74-1.21,1.9-3,1-5,2.15.81,4.08.76,5.49-.61,2.4-2.3,1.44-5.89-.91-9.64a2.75,2.75,0,0,0,2.15-1.28c5.19-7.19-18.2-29.56-26.53-31.93-24.5-7-50.94-6-50.94-6C219.26,311.91,213.67,352.68,213.69,352.7Z" transform="translate(1.47 -2.33)" style="fill:#f7a9a0"/><path d="M251.12,331.23a40.46,40.46,0,0,1,16.24,7.1c5.6,4.22,9.95,9.85,15.09,14.57.14.13-.07.34-.21.21-2.4-2.43-5.07-4.63-7.58-7s-4.83-4.65-7.43-6.76a40.09,40.09,0,0,0-16.13-8.05C251,331.32,251.06,331.22,251.12,331.23Z" transform="translate(1.47 -2.33)" style="fill:#263238"/><path d="M256.21,320.93c6.42,2.07,13,4.17,18.92,7.51,6.46,3.66,11.39,9.39,16.24,14.9q4.36,5,8.51,10.12c.12.14-.08.35-.2.21q-7.38-8.54-15.26-16.62a52.86,52.86,0,0,0-17-11.82c-3.66-1.59-7.43-2.89-11.2-4.18a.07.07,0,0,1-.07-.06A.06.06,0,0,1,256.21,320.93Z" transform="translate(1.47 -2.33)" style="fill:#263238"/><path d="M263.57,312.05c6.26,1.58,11.73,2.94,17.18,6.57,7.21,4.82,14,12.69,16.42,15.49,2.64,3.08,5.18,6.25,7.67,9.45.1.13-.13.31-.23.18a209.67,209.67,0,0,0-18.44-19.95,41.55,41.55,0,0,0-10.48-7.5,75.39,75.39,0,0,0-12.14-4.19S263.54,312.05,263.57,312.05Z" transform="translate(1.47 -2.33)" style="fill:#263238"/><path d="M111.51,287.77l37.7-22.23s-16.09-26-29.84-38.27-19.3-2.64-17.21,15.19S111.51,287.77,111.51,287.77Z" transform="translate(1.47 -2.33)" style="fill:#fd6e49"/><path d="M123.88,276.46a16,16,0,0,1-1.34,4.33c-.11.22-.21.45-.32.67l-1.55.91c.23-.7.51-1.39.81-2.07A15.77,15.77,0,0,1,123.88,276.46Zm-15.35-19.87a15.33,15.33,0,0,0-4.33-1.34,17.54,17.54,0,0,0,8.17,3.75A16.12,16.12,0,0,0,108.53,256.59Zm12.93-22a15.79,15.79,0,0,0,2.11,4,17.47,17.47,0,0,0-3.13-8.43,16.26,16.26,0,0,0,1,4.45Zm17.33,17.9a17.31,17.31,0,0,0-3.67.92,16,16,0,0,0-4,2.12,16,16,0,0,0,4.43-1,17.58,17.58,0,0,0,3.37-1.66,1.74,1.74,0,0,0-.13-.36Z" transform="translate(1.47 -2.33)" style="fill:#fff"/><path d="M143.27,259.89c-6,3.09-22.17,12-31.86,19.17-.06,0,.09.29.15.26,9-4.71,26.19-15.43,31.93-19.05C143.6,260.2,143.39,259.83,143.27,259.89Z" transform="translate(1.47 -2.33)" style="fill:#263238"/><path d="M146.11,267.38l-34.59,20.39s-7.27-27.47-9.36-45.31c-1.34-11.51.49-19.6,5.66-20.59Z" transform="translate(1.47 -2.33)" style="fill:#263238"/><path d="M147.93,362.73H23.29s27.07-104.55,52.13-134c.56-.68,1.14-1.31,1.72-1.91.12-.14.22-.24.34-.36a26.74,26.74,0,0,1,6.69-5.18c.44-.24.88-.46,1.34-.66,9.65-4.44,19.84-.76,27.2,5.54,2.33,2,28.75,36.37,31.09,49.47,2,11.57-5.8,24-5.8,24Z" transform="translate(1.47 -2.33)" style="fill:#fd6e49"/><path d="M92.86,235.2a15.74,15.74,0,0,1-1.35,4.34,15.51,15.51,0,0,1-2.41,3.84,15.68,15.68,0,0,1,1.35-4.33A15.87,15.87,0,0,1,92.86,235.2ZM74.1,293.72a16,16,0,0,0-1.34,4.33,17.54,17.54,0,0,0,3.75-8.17A16.12,16.12,0,0,0,74.1,293.72ZM58.7,354.79a15.39,15.39,0,0,0-1.34,4.34A17.82,17.82,0,0,0,61.11,351,16.12,16.12,0,0,0,58.7,354.79Zm62.78-74.49a15.74,15.74,0,0,0-1.35,4.34,15.39,15.39,0,0,0,2.41-3.85,16,16,0,0,0,1.34-4.33,15.77,15.77,0,0,0-2.4,3.84Zm19.75,39.9a16.09,16.09,0,0,0-1.32,4.28,13.84,13.84,0,0,0,1.63-2.32h0ZM93.76,348.57a16.18,16.18,0,0,0-1.34,4.34,15.39,15.39,0,0,0,2.41-3.85,16,16,0,0,0,1.34-4.33A16.12,16.12,0,0,0,93.76,348.57Zm14.77-92a15.33,15.33,0,0,0-4.33-1.34,17.54,17.54,0,0,0,8.17,3.75,16,16,0,0,0-3.84-2.39Zm8.24,49.63a16,16,0,0,0-4.33-1.34,17.46,17.46,0,0,0,8.17,3.75,16,16,0,0,0-3.84-2.39Zm3,54.27a16.18,16.18,0,0,0-4.34-1.34,17.53,17.53,0,0,0,8.18,3.75,16,16,0,0,0-3.84-2.39ZM59.48,314.79a16.18,16.18,0,0,0-4.34-1.34A15.57,15.57,0,0,0,59,315.86a16,16,0,0,0,4.33,1.34,16,16,0,0,0-3.84-2.39Zm81.05-24.46a13.94,13.94,0,0,0,.57,3c.17-.42.35-.86.52-1.31a12.93,12.93,0,0,0-1.09-1.67Zm-2.42,57.9a16,16,0,0,0,2.11,4,17.15,17.15,0,0,0-3.12-8.42,16.54,16.54,0,0,0,1,4.44ZM73.52,264.32a15.79,15.79,0,0,0,2.11,4,16,16,0,0,0-1-4.42,16.5,16.5,0,0,0-2.12-4,15.74,15.74,0,0,0,1,4.44Zm19.79,51.3a16,16,0,0,0,2.11,4,15.33,15.33,0,0,0-1-4.42,15.79,15.79,0,0,0-2.11-4,16.07,16.07,0,0,0,1,4.44ZM39.56,336.55a16,16,0,0,0,2.11,4,16,16,0,0,0-1-4.43,16.5,16.5,0,0,0-2.12-4A15.67,15.67,0,0,0,39.56,336.55Zm76.76-2.3a16,16,0,0,0,4-2.12,15.33,15.33,0,0,0-4.42,1,15.79,15.79,0,0,0-4,2.11A16,16,0,0,0,116.32,334.25ZM44.07,294.72h0c-.16.47-.33.93-.49,1.4l.65-.22a15.51,15.51,0,0,0,4-2.12A15.31,15.31,0,0,0,44.07,294.72Zm89.16-40.47a13.63,13.63,0,0,0-2.13,1.3,12.67,12.67,0,0,0,2.66-.46c-.18-.28-.36-.56-.53-.84Zm-59.07,80a16.5,16.5,0,0,0,4-2.12,15.33,15.33,0,0,0-4.42,1,16,16,0,0,0-4,2.11A16,16,0,0,0,74.16,334.25ZM26.62,356.79c-.67.26-1.33.53-2,.85-.09.36-.18.69-.27,1a20.11,20.11,0,0,0,2.65-.77,16,16,0,0,0,4-2.11A15.71,15.71,0,0,0,26.62,356.79Zm68-78.21a16.5,16.5,0,0,0,4-2.12,15.33,15.33,0,0,0-4.42,1,16,16,0,0,0-4,2.11,16.3,16.3,0,0,0,4.41-1Z" transform="translate(1.47 -2.33)" style="fill:#fff"/><path d="M119.3,295.17a107.86,107.86,0,0,0-15.75,2.73c-2.56.68-5.07,1.47-7.58,2.32-1.25.43-2.51.81-3.78,1.18a16.9,16.9,0,0,1-4,.8.1.1,0,0,0-.06.13.09.09,0,0,0,.06.06,28.37,28.37,0,0,0,3.91-.1,29.64,29.64,0,0,0,3.73-.74c2.6-.66,5.17-1.45,7.77-2.14,5.25-1.4,10.49-2.79,15.82-3.81C119.61,295.56,119.55,295.14,119.3,295.17Z" transform="translate(1.47 -2.33)" style="fill:#263238"/><path d="M132.46,299.75a118.16,118.16,0,0,0-13.17-.51,62.86,62.86,0,0,0-6.58.45c-1,.11-2.09.24-3.13.38s-2.27.46-3.42.6c-.12,0-.11.21,0,.19,1.08-.1,2.19,0,3.28-.05l3.29-.12c2.19-.07,4.38-.12,6.58-.21,4.39-.19,8.76-.33,13.15-.36A.19.19,0,0,0,132.46,299.75Z" transform="translate(1.47 -2.33)" style="fill:#263238"/><path d="M72.3,230.52c-19.77,21.17-64,97.24-48.79,111.89s110.8,14.93,127.83,14.93c7.75,0-8.13-51-16.44-52-6.92-.85-57.23-2.48-58.25-4.52-1.16-2.3,5.41-20.86,11.22-52.21C94.1,215,81,221.17,72.3,230.52Z" transform="translate(1.47 -2.33)" style="fill:#f7a9a0"/><path d="M162.48,294.84c17.18-2.4,22-.37,35.39-10.09,8.81-6.38,16.66-3.49,11.64,6.64-8.23,16.58-29.75,24.32-38,24.86Z" transform="translate(1.47 -2.33)" style="fill:#f7a9a0"/><path d="M116.84,311.38s19.31-10.72,37.36-15.09c12.49-3,41.69-7.75,67.08,21,8,9.06,8.43,21.87-3.84,14.22-9.53-5.94-14.66-11.87-21.06-13.66,0,0,3.51,18.21-3.28,24.3a168.14,168.14,0,0,1-18.87,14.64,35.26,35.26,0,0,1-3.06-3.29s-6.88,5.09-19.83,3.86Z" transform="translate(1.47 -2.33)" style="fill:#f7a9a0"/><path d="M166.58,295.32c6,3.11,18.51,9.92,26.84,19.06,9.24,10.15,24.31,32.2,16.75,38.95-5.55,4.94-12-3-12-3s4.31,10.43-1.68,13.8c-5.46,3.07-10.11-3.35-10.11-3.35s1.52,6.78-4.3,8.73c-7,2.34-9.06-12.24-18.21-16C161.78,352.69,166.58,295.32,166.58,295.32Z" transform="translate(1.47 -2.33)" style="fill:#f7a9a0"/><path d="M180.78,322.5c5.14,3.85,14.56,15.58,17.16,27.73.06.28-.11.47-.22.23a135.35,135.35,0,0,0-17-27.87C180.64,322.53,180.73,322.45,180.78,322.5Z" transform="translate(1.47 -2.33)" style="fill:#263238"/><path d="M171.09,332c4.08,3.78,13.25,16.3,15.47,28.71.05.27-.14.45-.24.21A144.22,144.22,0,0,0,171,332.07C170.94,332,171,331.94,171.09,332Z" transform="translate(1.47 -2.33)" style="fill:#263238"/><path d="M155.14,357.53a45.72,45.72,0,0,0,6.08-.48,20.43,20.43,0,0,0,5.84-1.6h.05a39.64,39.64,0,0,1,5.35,6,31.78,31.78,0,0,1,2.16,3.42A11.61,11.61,0,0,0,177,368a5.62,5.62,0,0,0,3.48,1.53,5,5,0,0,0,3.5-1.37,6.62,6.62,0,0,0,1.78-3.37,13.51,13.51,0,0,0,.28-3.91l-.06-.86.54.67a10.47,10.47,0,0,0,5.18,3.72,6.23,6.23,0,0,0,3.15,0,5.65,5.65,0,0,0,2.7-1.57c1.4-1.6,1.63-3.94,1.49-6.08a24.7,24.7,0,0,0-1.37-6.41l-.59-1.71,1.15,1.4a13.18,13.18,0,0,0,5.2,4,6.14,6.14,0,0,0,6.13-.75,5.32,5.32,0,0,0,1.78-2.59,9.6,9.6,0,0,0,.38-3.24,22.43,22.43,0,0,0-1.41-6.52,59.61,59.61,0,0,0-6.21-12,116.33,116.33,0,0,0-8.08-10.9l-.9-1.07,1.39.42a23.23,23.23,0,0,1,4.48,2.05c1.4.81,2.76,1.67,4.09,2.6,2.66,1.83,5.13,3.91,7.69,5.8a41.38,41.38,0,0,0,8.06,5c1.4.56,3,1,4.22.28s1.59-2.3,1.49-3.8a14.23,14.23,0,0,0-1.07-4.5,23.55,23.55,0,0,0-2.32-4.09,52.18,52.18,0,0,0-6.22-7.22,82.71,82.71,0,0,0-7.21-6.28,66.92,66.92,0,0,0-7.91-5.35l-.44-.25.36-.36a39.43,39.43,0,0,0,7.33-9.56,12.27,12.27,0,0,0,1.52-5.68,5.55,5.55,0,0,0-.73-2.75,3.55,3.55,0,0,0-2.2-1.62,8.74,8.74,0,0,0-5.66,1.08,59.4,59.4,0,0,0-5.26,3c-3.39,2.18-6.71,4.73-10.69,6a37.08,37.08,0,0,1-6,1.21c-2,.28-4.05.52-6.07.77-4,.49-8.08,1-12.1,1.66a114.58,114.58,0,0,0-23.61,6.08,114.34,114.34,0,0,1,23.56-6.38c4-.7,8-1.27,12.09-1.81l6-.83a34.41,34.41,0,0,0,5.94-1.22c3.86-1.22,7.11-3.74,10.53-6,1.72-1.11,3.47-2.16,5.3-3.1A9.27,9.27,0,0,1,207.8,281a4.28,4.28,0,0,1,2.6,1.9,6.18,6.18,0,0,1,.83,3.08,12.72,12.72,0,0,1-1.57,6,39.88,39.88,0,0,1-7.43,9.79l-.07-.6a68.12,68.12,0,0,1,8,5.37,84.71,84.71,0,0,1,7.31,6.32,52.09,52.09,0,0,1,6.36,7.31,24.75,24.75,0,0,1,2.43,4.24,15.33,15.33,0,0,1,1.16,4.81,6.74,6.74,0,0,1-.29,2.56,3.77,3.77,0,0,1-1.65,2.11,4.05,4.05,0,0,1-2.62.46,9.77,9.77,0,0,1-2.44-.65,40.26,40.26,0,0,1-8.29-5.08c-2.59-1.94-5-4-7.64-5.82-1.3-.91-2.64-1.78-4-2.57a21.26,21.26,0,0,0-4.23-2l.45-.72a119.15,119.15,0,0,1,8.09,11A60.4,60.4,0,0,1,211,340.7a23.31,23.31,0,0,1,1.43,6.75,10.3,10.3,0,0,1-.43,3.49,6,6,0,0,1-2,2.93,7.08,7.08,0,0,1-3.3,1.33,7.35,7.35,0,0,1-3.5-.5,14,14,0,0,1-5.47-4.24l.56-.31a25.62,25.62,0,0,1,1.38,6.59,12.92,12.92,0,0,1-.2,3.4,6.61,6.61,0,0,1-1.48,3.11,6.52,6.52,0,0,1-6.43,1.7,11.19,11.19,0,0,1-5.46-3.94l.48-.19a14.06,14.06,0,0,1-.32,4.09,6.87,6.87,0,0,1-2,3.61,5.4,5.4,0,0,1-3.82,1.43,6,6,0,0,1-3.72-1.68,12.29,12.29,0,0,1-2.39-3.28,32.08,32.08,0,0,0-2.09-3.41,39.79,39.79,0,0,0-5.24-6.06h.08a20.8,20.8,0,0,1-5.9,1.54A47.43,47.43,0,0,1,155.14,357.53Z" transform="translate(1.47 -2.33)" style="fill:#263238"/><path d="M41.31,267.58l41.17,14.83s9.74-29,10.41-47.4-10.27-16.54-22.67-3.55S41.31,267.58,41.31,267.58Z" transform="translate(1.47 -2.33)" style="fill:#fd6e49"/><path d="M92.86,235.2a15.74,15.74,0,0,1-1.35,4.34,15.51,15.51,0,0,1-2.41,3.84,15.68,15.68,0,0,1,1.35-4.33A15.87,15.87,0,0,1,92.86,235.2ZM47.6,269.85l1.09.39a15.22,15.22,0,0,0,1.24-4.07A15.07,15.07,0,0,0,47.6,269.85Zm25.92-5.51a15.79,15.79,0,0,0,2.11,4,16,16,0,0,0-1-4.42,16.5,16.5,0,0,0-2.12-4A15.68,15.68,0,0,0,73.52,264.34ZM61.16,243.73a19.63,19.63,0,0,0-2.6,1.19h0l-.67.84a16.8,16.8,0,0,0,3.69-.94,15.51,15.51,0,0,0,4-2.12,16.07,16.07,0,0,0-4.42,1Z" transform="translate(1.47 -2.33)" style="fill:#fff"/><path d="M83,274.23c-6.23-2.68-23.36-9.43-35.09-12.29-.07,0-.17.25-.11.28,9.37,3.92,28.6,10.32,35,12.42C83,274.68,83.16,274.28,83,274.23Z" transform="translate(1.47 -2.33)" style="fill:#263238"/><path d="M91,258.63c0-.06-.07-.09-.1,0-.74,1.42-1.4,2.86-2,4.33q1.08-4.83,1.93-9.68a.09.09,0,1,0-.18,0c-2.76,9.49-5.76,18.94-8.32,28.49-1,0-2.11-.12-3.15-.26a.14.14,0,0,0-.15.13.14.14,0,0,0,.09.14c1.14.28,2.26.64,3.37,1a.54.54,0,0,0,.71-.24,143.42,143.42,0,0,0,5-16.6c.43-.86.85-1.72,1.22-2.61A33.7,33.7,0,0,0,91,258.63Z" transform="translate(1.47 -2.33)" style="fill:#263238"/><path d="M93.27,223c.2,2.23,8.49,17.7,18.41,18.65,3.23.31,5.68-17.26,5.68-17.26l.48-1.26,6.66-17.58L105.13,188.8l-2.82-2.25s-1.51,4.93-3.32,11.09c-.09.28-.18.57-.26.87s-.23.68-.31,1c-.29.92-.57,1.86-.84,2.8-.2.71-.4,1.4-.59,2.16s-.39,1.49-.6,2.25C94.51,214.2,93.21,222,93.27,223Z" transform="translate(1.47 -2.33)" style="fill:#f7a9a0"/><path d="M99,197.63a37.66,37.66,0,0,0,18.85,25.49l6.66-17.58-19.37-16.75-2.82-2.25S100.8,191.47,99,197.63Z" transform="translate(1.47 -2.33)" style="fill:#263238"/><path d="M153.39,180.06c-1.7,33-21.63,35.66-28.73,35.28-6.45-.34-28.37-2.31-30.09-35.27s14.15-42.58,28.94-42.58S155.09,147.11,153.39,180.06Z" transform="translate(1.47 -2.33)" style="fill:#f7a9a0"/><path d="M149,174.13a21,21,0,0,1-2.19-.63,3.72,3.72,0,0,1-2.11-1.07,1.19,1.19,0,0,1,.1-1.43,2.94,2.94,0,0,1,2.92-.47,4.31,4.31,0,0,1,2.56,1.71,1.23,1.23,0,0,1-.37,1.71A1.22,1.22,0,0,1,149,174.13Z" transform="translate(1.47 -2.33)" style="fill:#263238"/><path d="M128,172.73a15.61,15.61,0,0,0,2.25-.31,3.67,3.67,0,0,0,2.25-.75,1.16,1.16,0,0,0,.1-1.43,2.88,2.88,0,0,0-2.81-.89,4.35,4.35,0,0,0-2.79,1.31,1.27,1.27,0,0,0,.15,1.78A1.31,1.31,0,0,0,128,172.73Z" transform="translate(1.47 -2.33)" style="fill:#263238"/><path d="M131.31,180.88c0-.09-.19.1-.19.19,0,2.25-.46,4.81-2.53,5.46-.07,0-.07.13,0,.12C131.09,186.43,131.63,183,131.31,180.88Z" transform="translate(1.47 -2.33)" style="fill:#263238"/><path d="M129.42,178.44c-3.6-.46-4.24,6.76-.91,7.19S132.43,178.82,129.42,178.44Z" transform="translate(1.47 -2.33)" style="fill:#263238"/><path d="M128,178.69c-.67.35-1.35,1-2.12,1s-1.49-.81-2-1.59c0-.08-.12,0-.13.07-.14,1.38.26,2.85,1.73,3.19s2.42-.83,2.89-2.19C128.43,179,128.24,178.55,128,178.69Z" transform="translate(1.47 -2.33)" style="fill:#263238"/><path d="M143.58,181.5c0-.08.16.12.15.22-.29,2.22-.25,4.83,1.71,5.77.06,0,0,.14,0,.12C143,187,143,183.57,143.58,181.5Z" transform="translate(1.47 -2.33)" style="fill:#263238"/><path d="M145.8,179.36c3.62.08,3.2,7.32-.15,7.25S142.76,179.3,145.8,179.36Z" transform="translate(1.47 -2.33)" style="fill:#263238"/><path d="M147.28,179.92c.55.42,1.08,1.15,1.76,1.24s1.42-.65,2-1.38c.06-.07.11,0,.11.09-.05,1.38-.59,2.8-1.93,3s-2.05-1.07-2.3-2.47C146.84,180.13,147.06,179.76,147.28,179.92Z" transform="translate(1.47 -2.33)" style="fill:#263238"/><path d="M129.64,198.13c.46.59.9,1.38,1.7,1.56a5.85,5.85,0,0,0,2.46-.24.08.08,0,0,1,.11,0,.08.08,0,0,1,0,.09,3,3,0,0,1-3,.82,2.37,2.37,0,0,1-1.49-2.2A.13.13,0,0,1,129.64,198.13Z" transform="translate(1.47 -2.33)" style="fill:#263238"/><path d="M139.19,191.84s.2,3.38.08,5c0,.14-5.86.88-8.07-3.2a.16.16,0,0,1,0-.23.16.16,0,0,1,.22,0,11.4,11.4,0,0,0,6.7,2.5c.14-.43-.54-5.78-.29-5.78a13.56,13.56,0,0,1,3.52,1.09c-.22-7.06-1.56-14-1.67-21.05a.22.22,0,0,1,.24-.2.23.23,0,0,1,.18.13c1.92,7.2,2.35,15.31,2.76,22.59C143,193.59,139.8,192.15,139.19,191.84Z" transform="translate(1.47 -2.33)" style="fill:#263238"/><path d="M94.94,179.36a13.34,13.34,0,0,0,9.86-8.77c28.24-.69,37.58-18.21,37.58-18.21,5.42,14.75,10.26,17.28,11.05,19.5,0,0,2.35-12.79-1.92-22.54-3.78-8.63-13.48-17.87-28.74-15.91-8.65,1.11-15.93,8.6-15.93,8.6s-9.35,1-13.18,8.52C87.24,163.19,94.94,179.36,94.94,179.36Z" transform="translate(1.47 -2.33)" style="fill:#263238"/><path d="M142.81,151.26a22.89,22.89,0,0,1-5.62,9.78,29.34,29.34,0,0,1-9.34,6.51l-2.68,1c-.91.31-1.84.5-2.76.75a35.65,35.65,0,0,1-5.61,1c-1.89.17-3.79.14-5.68.21-1.88-.17-3.76-.3-5.63-.5,1.89-.06,3.76,0,5.63-.06s3.73-.26,5.57-.52a41.42,41.42,0,0,0,10.7-2.92,30.31,30.31,0,0,0,9.17-6.08A26.44,26.44,0,0,0,142.81,151.26Z" transform="translate(1.47 -2.33)" style="fill:#263238"/><path d="M123.94,191.72a10.48,10.48,0,1,1,12.65-10.66h0a10.49,10.49,0,0,1-10.06,10.88A11.24,11.24,0,0,1,123.94,191.72ZM128,172.59a9.46,9.46,0,0,0-2.25-.19,9.06,9.06,0,1,0,2.25.19Z" transform="translate(1.47 -2.33)" style="fill:#455a64"/><path d="M147.89,193.83c-3.92-.84-6.62-5.61-6.11-11.05a12.43,12.43,0,0,1,2.88-7.09,6.52,6.52,0,0,1,11.13,1,12.48,12.48,0,0,1,1.52,7.5c-.54,5.75-4.46,10.11-8.74,9.71A2.58,2.58,0,0,1,147.89,193.83Zm3-19.28a3,3,0,0,0-.52-.08,5.59,5.59,0,0,0-4.68,2.14,11.15,11.15,0,0,0-2.54,6.3c-.47,5,2,9.3,5.53,9.63s6.75-3.46,7.21-8.44a11.12,11.12,0,0,0-1.33-6.66,5.79,5.79,0,0,0-3.65-2.89Z" transform="translate(1.47 -2.33)" style="fill:#455a64"/><path d="M136.13,182.23l-.8-1.15c1.71-1.18,5.53-2.62,7.83.34l-1.11.86C140,179.62,136.29,182.13,136.13,182.23Z" transform="translate(1.47 -2.33)" style="fill:#455a64"/><path d="M89.4,180.57l-1.18-.76c.35-.55,3.54-5.38,6.7-5.59,3-.19,21.48,3.31,22.27,3.46l-.26,1.37c-5.31-1-19.64-3.59-21.92-3.43C92.93,175.76,90.25,179.24,89.4,180.57Z" transform="translate(1.47 -2.33)" style="fill:#455a64"/><path d="M99.92,180.42s-5.72-11.19-10.7-9.29-1.67,17.43,3.48,20.21a5.58,5.58,0,0,0,7.7-1.74l.12-.2Z" transform="translate(1.47 -2.33)" style="fill:#f7a9a0"/><path d="M90.28,175.56c-.09,0-.12.1,0,.14,3.6,2.07,5.11,5.88,6,9.74-.94-1.57-2.37-2.55-4.45-1.47a.12.12,0,0,0,0,.17.12.12,0,0,0,.1.05,3.43,3.43,0,0,1,3.58,1.71,16.75,16.75,0,0,1,1.37,3.27c.13.37.77.27.7-.14v-.09C98.26,184.09,95.43,176.77,90.28,175.56Z" transform="translate(1.47 -2.33)" style="fill:#263238"/></g><g id="freepik--Lines--inject-116"><path d="M231.64,362.75a82.8,82.8,0,0,1-9.66-1.47,83.84,83.84,0,0,1-9.47-2.45A95.42,95.42,0,0,1,231.64,362.75Z" transform="translate(1.47 -2.33)" style="fill:#263238"/><path d="M259.46,354.22c-.39-3.83-.48-7.66-.5-11.49a113.18,113.18,0,0,1,.5-11.5,113.18,113.18,0,0,1,.5,11.5C259.94,346.56,259.85,350.39,259.46,354.22Z" transform="translate(1.47 -2.33)" style="fill:#263238"/><path d="M249.69,354.38a104.76,104.76,0,0,1-6.05-9,102.28,102.28,0,0,1-5.19-9.54,116.91,116.91,0,0,1,11.24,18.57Z" transform="translate(1.47 -2.33)" style="fill:#263238"/><path d="M214.65,336.7c2.22,1.71,4.37,3.5,6.51,5.3s4.23,3.64,6.32,5.5,4.15,3.74,6.17,5.67l3,2.89,3,3c-1.11-.85-2.19-1.74-3.28-2.61l-3.22-2.69c-2.14-1.79-4.23-3.64-6.32-5.5s-4.15-3.74-6.17-5.67S216.6,338.72,214.65,336.7Z" transform="translate(1.47 -2.33)" style="fill:#263238"/><path d="M277.62,361a95.37,95.37,0,0,1,19.13-3.92A95.42,95.42,0,0,1,277.62,361Z" transform="translate(1.47 -2.33)" style="fill:#263238"/><path d="M293,334.74c-1.94,2-4,3.95-6,5.87s-4.1,3.8-6.17,5.67-4.18,3.71-6.33,5.5l-3.21,2.69c-1.1.87-2.17,1.76-3.29,2.61l3-3,3-2.89c2-1.93,4.1-3.8,6.17-5.67s4.18-3.71,6.33-5.5S290.79,336.45,293,334.74Z" transform="translate(1.47 -2.33)" style="fill:#263238"/></g><g id="freepik--Lamp--inject-116"><polygon points="385.4 350.75 388.24 350.37 383.64 239.32 350.65 192.85 348.19 194.87 381 241.13 385.4 350.75" style="fill:#263238"/><path d="M384.88,242.56a4,4,0,1,1-4-4A4,4,0,0,1,384.88,242.56Z" transform="translate(1.47 -2.33)" style="fill:#fd6e49"/><path d="M352.31,196.6a4,4,0,1,1-4-4A4,4,0,0,1,352.31,196.6Z" transform="translate(1.47 -2.33)" style="fill:#fd6e49"/><polygon points="322.36 195.84 337.91 219.61 348.19 210.24 354.45 204.53 342.78 186.73 335.04 190.18 322.36 195.84" style="fill:#fd6e49"/><polygon points="322.36 195.84 337.91 219.61 348.19 210.24 335.04 190.18 322.36 195.84" style="opacity:0.10000000149011612;isolation:isolate"/><polygon points="293.62 202.03 320.75 243.47 346.66 219.09 326.33 188.03 293.62 202.03" style="fill:#fd6e49"/><polygon points="360.87 360.43 409.78 360.43 406.77 345.07 363.87 345.07 360.87 360.43" style="fill:#fd6e49"/></g><g id="freepik--speech-bubbles--inject-116"><path d="M199.84,101.58a30.27,30.27,0,0,1-50.58,19.15L134.11,123l7.58-13.1a30.32,30.32,0,1,1,58.19-8.68c0,.14,0,.27,0,.41Z" transform="translate(1.47 -2.33)" style="fill:#fff"/><path d="M199.84,101.58a30.4,30.4,0,0,1-6.11,15.34,27.33,27.33,0,0,1-5.94,5.87,30.55,30.55,0,0,1-15.45,6,31.15,31.15,0,0,1-4.21.08,25.56,25.56,0,0,1-4.19-.44,30.53,30.53,0,0,1-15-7.39l.36.11-15.13,2.32-1.1.17.55-1,7.54-13.12V110A30.64,30.64,0,0,1,143,83a31,31,0,0,1,9.48-10.1,30.58,30.58,0,0,1,47.35,28.59Zm0,0A30,30,0,0,0,153,73.75a31.25,31.25,0,0,0-9.06,9.88,30,30,0,0,0-3.84,12.81,30.34,30.34,0,0,0,2.13,13.19l.11.27-.14.25-7.63,13.07-.54-.8,15.16-2.12h.21l.15.14a29.76,29.76,0,0,0,14.5,7.46,24.68,24.68,0,0,0,4.11.5,28.6,28.6,0,0,0,4.14,0,30.27,30.27,0,0,0,8.09-1.78,28.63,28.63,0,0,0,7.3-3.94,27,27,0,0,0,5.95-5.8A30.35,30.35,0,0,0,199.84,101.58Z" transform="translate(1.47 -2.33)" style="fill:#263238"/><path d="M186.61,99.35a3.67,3.67,0,1,1-3.67-3.67h0a3.66,3.66,0,0,1,3.67,3.65Z" transform="translate(1.47 -2.33)" style="fill:#263238"/><path d="M173.47,99.35a3.67,3.67,0,1,1-3.67-3.67h0a3.66,3.66,0,0,1,3.66,3.66Z" transform="translate(1.47 -2.33)" style="fill:#263238"/><path d="M160.34,99.35a3.67,3.67,0,1,1-3.67-3.67h0a3.66,3.66,0,0,1,3.67,3.65Z" transform="translate(1.47 -2.33)" style="fill:#263238"/><rect x="170.69" y="139.97" width="81.54" height="44.97" style="fill:#455a64"/><polygon points="236.51 184.94 252.23 184.94 252.23 196.31 236.51 184.94" style="fill:#455a64"/><rect x="180.61" y="148.27" width="36.97" height="1.01" style="fill:#fff"/><rect x="180.61" y="153.74" width="62.09" height="1.01" style="fill:#fff"/><rect x="180.61" y="159.21" width="62.09" height="1.01" style="fill:#fff"/><rect x="180.61" y="164.68" width="50.19" height="1.01" style="fill:#fff"/><rect x="180.61" y="170.15" width="62.09" height="1.01" style="fill:#fff"/><rect x="180.61" y="175.62" width="22.84" height="1.01" style="fill:#fff"/><rect x="198.52" y="201.3" width="80.99" height="33.36" style="fill:#fd6e49"/><polygon points="279.51 245.37 279.51 234.65 263.25 234.65 279.51 245.37" style="fill:#fd6e49"/><rect x="208.37" y="209.6" width="61.41" height="1.01" style="fill:#fff"/><rect x="208.37" y="215.07" width="35.04" height="1.01" style="fill:#fff"/><rect x="208.37" y="220.54" width="47.36" height="1.01" style="fill:#fff"/><rect x="208.37" y="226.01" width="16.5" height="1.01" style="fill:#fff"/></g><g id="freepik--Device--inject-116"><rect x="213.33" y="364.23" width="8.13" height="5.31" style="fill:#ebebeb"/><rect x="223.87" y="363.88" width="8.13" height="5.31" style="fill:#ebebeb"/><rect x="234.42" y="363.53" width="8.13" height="5.31" style="fill:#ebebeb"/><rect x="244.96" y="363.18" width="8.13" height="5.31" style="fill:#ebebeb"/><rect x="255.51" y="362.83" width="8.13" height="5.31" style="fill:#ebebeb"/><rect x="266.05" y="362.48" width="8.13" height="5.31" style="fill:#ebebeb"/><rect x="276.59" y="362.13" width="8.13" height="5.31" style="fill:#ebebeb"/><rect x="287.14" y="361.78" width="8.13" height="5.31" style="fill:#ebebeb"/><rect x="297.68" y="361.43" width="8.13" height="5.31" style="fill:#ebebeb"/><polygon points="307.8 372.6 211.34 372.6 211.34 366.13 307.8 363.44 307.8 372.6" style="fill:#dbdbdb"/><polygon points="379.74 350.23 245.34 350.23 266.71 250.17 401.11 250.17 379.74 350.23" style="fill:#ebebeb"/><polygon points="384.71 350.23 250.31 350.23 271.68 250.17 406.08 250.17 384.71 350.23" style="fill:#dbdbdb"/><ellipse cx="330.03" cy="296.71" rx="8.99" ry="7.68" transform="translate(-112.25 300.45) rotate(-42.74)" style="fill:#fff"/><polygon points="346.7 376.36 280.6 376.36 280.6 371.22 346.7 369.09 346.7 376.36" style="fill:#ebebeb"/><polygon points="364.67 376.35 329.18 376.35 307.8 320.28 343.29 320.28 364.67 376.35" style="fill:#ebebeb"/><polygon points="370.51 376.35 335.02 376.35 313.65 320.28 349.14 320.28 370.51 376.35" style="fill:#a6a6a6"/><path d="M201,380.05H132.89c-5.81,0,2.6-16.56,23.83-22.91S207.74,373.84,201,380.05Z" transform="translate(1.47 -2.33)" style="fill:#dbdbdb"/><path d="M174.3,380.05a20.55,20.55,0,0,1,.93-5.56,23.39,23.39,0,0,1,2.3-5.19,18.59,18.59,0,0,1,3.61-4.39,16,16,0,0,1,4.79-3c-.73.6-1.56,1-2.23,1.67l-1,.89-1,1a24.08,24.08,0,0,0-3.3,4.35,33.12,33.12,0,0,0-2.42,4.93A41.27,41.27,0,0,0,174.3,380.05Z" transform="translate(1.47 -2.33)" style="fill:#263238"/><path d="M182.38,364.29a41.67,41.67,0,0,1,5.88,2.4,40.38,40.38,0,0,1,5.48,3.26,24.88,24.88,0,0,1,4.75,4.3,15.53,15.53,0,0,1,1.76,2.71,7.94,7.94,0,0,1,.79,3.09,9.06,9.06,0,0,0-1.22-2.86,14.92,14.92,0,0,0-1.91-2.43,33.54,33.54,0,0,0-4.75-4c-1.69-1.22-3.48-2.31-5.27-3.39-.9-.54-1.81-1.06-2.74-1.56S183.31,364.8,182.38,364.29Z" transform="translate(1.47 -2.33)" style="fill:#263238"/></g><g id="freepik--Mug--inject-116"><path d="M74.6,346.61s24.3-11.2,24.3-26.21S67.38,295.73,67.38,284s13.75-18.64,13.75-18.64-21.72,7.42-21.72,22.26S80.19,312.51,82.18,322C84.94,335.07,74.6,346.61,74.6,346.61Z" transform="translate(1.47 -2.33)" style="fill:#dbdbdb;opacity:0.6000000238418579;isolation:isolate"/><path d="M75.8,346.61s-24.31-8.8-24.31-20.6S83,306.61,83,297.38s-13.74-14.65-13.74-14.65S91,288.56,91,300.23,67.14,319.92,65.43,329.4C63.74,338.69,75.8,346.61,75.8,346.61Z" transform="translate(1.47 -2.33)" style="fill:#dbdbdb;opacity:0.6000000238418579;isolation:isolate"/><rect x="64.76" y="382.03" width="23.12" height="3.61" style="fill:#455a64"/><rect x="64.76" y="382.03" width="23.12" height="2.38" style="fill:#263238"/><path d="M35.85,374.65a13.06,13.06,0,0,0,13,5.57,12.75,12.75,0,0,0,2.34-.67,16.72,16.72,0,0,0,3.27-1.72l-2.94-4.36a9.61,9.61,0,0,1-1.73,1c-5.51,2.5-9-1.85-9.68-2.84C37,367.17,35.83,357,39,353.08c.21-.29,1.14-.75,4.86.05.69.15,1.47.32,2.35.57a9.44,9.44,0,0,0,2.11.45l.1-2.61.25-2.61a5.83,5.83,0,0,1-1.1-.29,33.64,33.64,0,0,0-5.26-1.09c-2.74-.29-5.61,0-7.37,2.21C29.76,356.15,31.88,369.07,35.85,374.65Z" transform="translate(1.47 -2.33)" style="fill:#455a64"/><path d="M51.54,373.47a9.61,9.61,0,0,1-1.73,1l1.4,5.09a16.72,16.72,0,0,0,3.27-1.72Z" transform="translate(1.47 -2.33)" style="fill:#263238"/><path d="M42.35,347.55l1.55,5.58c.69.15,1.47.32,2.35.57a9.44,9.44,0,0,0,2.11.45l.1-2.61.25-2.61a5.83,5.83,0,0,1-1.1-.29A33.64,33.64,0,0,0,42.35,347.55Z" transform="translate(1.47 -2.33)" style="fill:#263238"/><path d="M105.61,340.73s-2.78,23.56-7.57,33.49-11.47,11-15.63,11H67.29c-4.15,0-10.84-1.11-15.63-11s-7.56-33.49-7.56-33.49Z" transform="translate(1.47 -2.33)" style="fill:#455a64"/><path d="M54.14,347.46a2.73,2.73,0,1,1-2.73-2.73,2.73,2.73,0,0,1,2.73,2.73Zm21.37-3.3a2.73,2.73,0,1,0,2.73,2.73,2.73,2.73,0,0,0-2.73-2.73Zm0,34.29a2.73,2.73,0,1,0,2.73,2.73,2.73,2.73,0,0,0-2.73-2.73ZM95.31,363A2.73,2.73,0,1,0,98,365.73,2.73,2.73,0,0,0,95.31,363ZM65,371.05a2.73,2.73,0,1,0,2.73,2.73A2.73,2.73,0,0,0,65,371.05Zm32-26.89a2.73,2.73,0,1,0,2.73,2.73A2.73,2.73,0,0,0,97,344.16Zm-21.85,18.4a2.73,2.73,0,1,0,2.73,2.73,2.73,2.73,0,0,0-2.73-2.73Zm-20.7.43a2.73,2.73,0,1,0,2.73,2.73A2.73,2.73,0,0,0,54.45,363Zm31.93-9.14a2.73,2.73,0,1,0,2.73,2.73,2.73,2.73,0,0,0-2.73-2.73Zm-.74,17.65a2.73,2.73,0,1,0,2.72,2.74h0a2.73,2.73,0,0,0-2.69-2.73Zm-22-17.65a2.73,2.73,0,1,0,2.72,2.74h0a2.73,2.73,0,0,0-2.68-2.73Z" transform="translate(1.47 -2.33)" style="fill:#37474f"/></g></svg>