<svg id="Layer_1" data-name="Layer 1" xmlns="http://www.w3.org/2000/svg" viewBox="0 0 77.05 3.76"><title>puntoshori</title><path d="M23.16,11.78A1.88,1.88,0,1,1,21.28,9.9,1.88,1.88,0,0,1,23.16,11.78Z" transform="translate(-19.41 -9.9)" style="fill:#233833"/><path d="M47.6,11.78A1.88,1.88,0,1,1,45.72,9.9,1.89,1.89,0,0,1,47.6,11.78Z" transform="translate(-19.41 -9.9)" style="fill:#233833"/><path d="M72,11.78A1.88,1.88,0,1,1,70.15,9.9,1.89,1.89,0,0,1,72,11.78Z" transform="translate(-19.41 -9.9)" style="fill:#233833"/><path d="M96.46,11.78A1.88,1.88,0,1,1,94.58,9.9,1.88,1.88,0,0,1,96.46,11.78Z" transform="translate(-19.41 -9.9)" style="fill:#233833"/></svg>