<svg id="Layer_1" data-name="Layer 1" xmlns="http://www.w3.org/2000/svg" viewBox="0 0 106.19 71.57"><title>desarrollo</title><path d="M4.18,13.89V85.46H110.37V13.89Zm101.4,66.64H9V18.82h96.61Z" transform="translate(-4.18 -13.89)" style="fill:#2d2d2d"/><rect x="4.79" y="4.93" width="96.61" height="10.06" style="fill:#2d2d2d"/><rect x="79.82" y="7.74" width="4.44" height="4.44" style="fill:#fdc63a"/><rect x="86.4" y="7.74" width="4.44" height="4.44" style="fill:#c1d64b"/><rect x="92.97" y="7.74" width="4.44" height="4.44" style="fill:#fd692b"/><rect x="4.79" y="14.99" width="48.3" height="51.65" style="fill:#fd7b53"/><rect x="53.09" y="14.99" width="48.3" height="51.65" style="fill:#fd6e49"/><path d="M35.45,56v.12l11.27,4v5.31L29.89,58.25V53.82l16.83-7.15V52Z" transform="translate(-4.18 -13.89)" style="fill:#fff"/><path d="M54.47,69.21H48.93L59.35,38.33H64.9Z" transform="translate(-4.18 -13.89)" style="fill:#fff"/><path d="M79.08,56.24v-.12l-11.45-4V46.85l17,7.14v4.44l-17,7.16V60.32Z" transform="translate(-4.18 -13.89)" style="fill:#fff"/></svg>