<svg id="Layer_1" data-name="Layer 1" xmlns="http://www.w3.org/2000/svg" viewBox="0 0 29.72 29.72"><title>email</title><circle cx="14.86" cy="14.86" r="14.57" style="fill:none;stroke:#233833;stroke-miterlimit:10;stroke-width:0.588113510684668px"/><path d="M16.92,27.87a1.64,1.64,0,0,1-1.2-.5,1.62,1.62,0,0,1-.5-1.2V15.93a1.71,1.71,0,0,1,1.7-1.71H30.57a1.71,1.71,0,0,1,1.71,1.71V26.17a1.66,1.66,0,0,1-.5,1.2,1.68,1.68,0,0,1-1.21.5Z" transform="translate(-8.89 -6.19)" style="fill:none;stroke:#233833;stroke-miterlimit:10;stroke-width:0.853176701786495px"/><polygon points="14.86 15.71 21.68 11.45 21.68 9.74 14.86 14.01 8.03 9.74 8.03 11.45 14.86 15.71" style="fill:#233833"/></svg>