<svg id="Layer_1" data-name="Layer 1" xmlns="http://www.w3.org/2000/svg" viewBox="0 0 63.72 63.72"><title>githubnara</title><circle cx="31.86" cy="31.86" r="30.72" style="fill:none;stroke:#fd6e49;stroke-miterlimit:10;stroke-width:2.275930166244507px"/><path d="M27,46.37V43.19a8.16,8.16,0,0,1-1.78.2A4.26,4.26,0,0,1,21,39.63a4.09,4.09,0,0,0-1.19-2c-.59-.19-.8-.19-.8-.4s.6-.39.8-.39c1.19,0,2.18,1.38,2.57,2a3.65,3.65,0,0,0,2.77,2,3.9,3.9,0,0,0,1.78-.4,5.14,5.14,0,0,1,2-3.56c-4.55-1-7.92-3.57-7.92-7.92A9.31,9.31,0,0,1,23.42,23,7.33,7.33,0,0,1,23,20.22a6.88,6.88,0,0,1,.6-3.16,8.9,8.9,0,0,1,5.49,2.59,10.53,10.53,0,0,1,3.77-.6,12.36,12.36,0,0,1,4,.6,8.53,8.53,0,0,1,5.54-2.59,10,10,0,0,1,.39,3.16A6.78,6.78,0,0,1,42.37,23a8.9,8.9,0,0,1,2.37,5.93c0,4.35-3.4,6.94-7.91,7.92a6.08,6.08,0,0,1,2,4.56v5.1C38.85,47.15,27,47.15,27,46.37Z" transform="translate(0 0)" style="fill:#fd6e49"/></svg>