<svg id="Layer_1" data-name="Layer 1" xmlns="http://www.w3.org/2000/svg" viewBox="0 0 29.72 29.72"><title>github</title><path d="M19.75,29.64V27.77a4.61,4.61,0,0,1-1.05.12,2.51,2.51,0,0,1-2.44-2.21,2.44,2.44,0,0,0-.7-1.17c-.35-.11-.47-.11-.47-.23s.35-.23.47-.23c.7,0,1.28.81,1.51,1.16a2.16,2.16,0,0,0,1.63,1.17,2.25,2.25,0,0,0,1.05-.24,3,3,0,0,1,1.17-2.09c-2.68-.58-4.66-2.1-4.66-4.66a5.45,5.45,0,0,1,1.4-3.49,4.27,4.27,0,0,1-.24-1.64,4,4,0,0,1,.35-1.86A5.23,5.23,0,0,1,21,13.92a6.2,6.2,0,0,1,2.22-.35,7.34,7.34,0,0,1,2.33.35,5,5,0,0,1,3.26-1.52,5.86,5.86,0,0,1,.23,1.86,4.06,4.06,0,0,1-.23,1.64,5.25,5.25,0,0,1,1.39,3.49c0,2.56-2,4.08-4.65,4.66a3.58,3.58,0,0,1,1.16,2.68v3C26.74,30.1,19.75,30.1,19.75,29.64Z" transform="translate(-7.8 -6.34)" style="fill:#233833"/><circle cx="14.86" cy="14.86" r="14.57" style="fill:none;stroke:#233833;stroke-miterlimit:10;stroke-width:0.588113510684668px"/></svg>