<svg id="Layer_1" data-name="Layer 1" xmlns="http://www.w3.org/2000/svg" viewBox="0 0 63.72 63.72"><title>iconolinkedin</title><circle cx="31.86" cy="31.86" r="30.72" style="fill:none;stroke:#fd6e49;stroke-miterlimit:10;stroke-width:2.27593016624451px"/><rect x="20.87" y="28.1" width="4.72" height="15.2" style="fill:#fd6e49"/><path d="M40.57,49a2.76,2.76,0,1,1,2.75-2.76A2.76,2.76,0,0,1,40.57,49Z" transform="translate(-17.38 -23.02)" style="fill:#fd6e49"/><path d="M60.68,66.32H56V58.93c0-1.77,0-4-2.45-4s-2.84,1.92-2.84,3.9v7.52H45.94V51.12h4.54V53.2h.06A5,5,0,0,1,55,50.74c4.78,0,5.67,3.15,5.67,7.24Z" transform="translate(-17.38 -23.02)" style="fill:#fd6e49"/></svg>