<svg id="Layer_1" data-name="Layer 1" xmlns="http://www.w3.org/2000/svg" viewBox="0 0 29.72 29.72"><title>linkedin</title><rect x="7.47" y="12.33" width="3.18" height="10.23" style="fill:#233833"/><path d="M17.7,17.05a1.85,1.85,0,1,1,1.85-1.85A1.85,1.85,0,0,1,17.7,17.05Z" transform="translate(-8.68 -6.19)" style="fill:#233833"/><path d="M31.23,28.74H28.05v-5c0-1.19,0-2.71-1.65-2.71s-1.91,1.29-1.91,2.62v5.06H21.32V18.52h3v1.39h.05a3.34,3.34,0,0,1,3-1.65c3.22,0,3.82,2.12,3.82,4.87Z" transform="translate(-8.68 -6.19)" style="fill:#233833"/><circle cx="14.86" cy="14.86" r="14.57" style="fill:none;stroke:#233833;stroke-miterlimit:10;stroke-width:0.588113510684668px"/></svg>