<svg id="Layer_1" data-name="Layer 1" xmlns="http://www.w3.org/2000/svg" viewBox="0 0 104.18 78.14"><title>pantalla</title><rect width="87.72" height="56.36"/><polygon points="61.86 74.33 28.57 74.33 37.62 62.22 52.81 62.22 61.86 74.33" style="fill:#adadad"/><path d="M86.86,79H12a6.16,6.16,0,0,1-6.43-5.86V67.25H93.29v5.87A6.17,6.17,0,0,1,86.86,79Z" transform="translate(-5.58 -10.89)" style="fill:#dbdbdb"/><rect x="27.35" y="74.33" width="35.73" height="3.81"/><rect x="2.57" y="2.57" width="42.64" height="51.21" style="fill:#fd7b53"/><rect x="45.21" y="2.57" width="39.93" height="51.21" style="fill:#fd6e49"/><rect x="5.33" y="6.36" width="37.06" height="14.92" style="fill:#fdf3d7"/><rect x="48.08" y="6.36" width="33.76" height="14.92" style="fill:#fdf3d7"/><rect x="5.33" y="24.57" width="76.51" height="5.63" style="fill:#fdf3d7"/><rect x="5.33" y="33" width="76.51" height="5.63" style="fill:#fdf3d7"/><rect x="5.33" y="41.44" width="76.51" height="5.63" style="fill:#fdf3d7"/><path d="M105.16,25.26H92.59V89h12.57a4.6,4.6,0,0,0,4.6-4.6V29.85A4.59,4.59,0,0,0,105.16,25.26Z" transform="translate(-5.58 -10.89)" style="fill:#0f303f"/><path d="M80,25.26a4.58,4.58,0,0,0-4.59,4.59V84.43A4.59,4.59,0,0,0,80,89H92.59V25.26Z" transform="translate(-5.58 -10.89)" style="fill:#2c5871"/><rect x="80.03" y="16.91" width="13.96" height="1.15" style="fill:#fff"/><path d="M92.59,87.25a3.8,3.8,0,1,1,3.79-3.8A3.81,3.81,0,0,1,92.59,87.25Zm0-6.76a3,3,0,1,0,3,3A3,3,0,0,0,92.59,80.49Z" transform="translate(-5.58 -10.89)" style="fill:#fff"/><rect x="71.51" y="21.28" width="15.67" height="45.19" style="fill:#fd7b53"/><rect x="87.18" y="21.28" width="15.33" height="45.19" style="fill:#fd6e49"/><rect x="74.12" y="24.01" width="25.55" height="8.04" style="fill:#fdf3d7"/><rect x="74.12" y="33.4" width="25.55" height="8.04" style="fill:#fdf3d7"/><rect x="74.12" y="42.79" width="25.55" height="8.04" style="fill:#fdf3d7"/><rect x="74.12" y="52.18" width="25.55" height="8.04" style="fill:#fdf3d7"/></svg>