<svg id="Layer_1" data-name="Layer 1" xmlns="http://www.w3.org/2000/svg" viewBox="0 0 77.05 80.65"><title>puntos</title><path d="M40.1,30.25a1.88,1.88,0,1,1-1.88-1.88A1.88,1.88,0,0,1,40.1,30.25Z" transform="translate(-36.34 -28.37)" style="fill:#233833"/><path d="M64.53,30.25a1.88,1.88,0,1,1-1.88-1.88A1.88,1.88,0,0,1,64.53,30.25Z" transform="translate(-36.34 -28.37)" style="fill:#233833"/><path d="M89,30.25a1.88,1.88,0,1,1-1.88-1.88A1.88,1.88,0,0,1,89,30.25Z" transform="translate(-36.34 -28.37)" style="fill:#233833"/><path d="M113.39,30.25a1.88,1.88,0,1,1-1.88-1.88A1.88,1.88,0,0,1,113.39,30.25Z" transform="translate(-36.34 -28.37)" style="fill:#233833"/><path d="M40.1,55.88A1.88,1.88,0,1,1,38.22,54,1.88,1.88,0,0,1,40.1,55.88Z" transform="translate(-36.34 -28.37)" style="fill:#233833"/><path d="M64.53,55.88A1.88,1.88,0,1,1,62.65,54,1.88,1.88,0,0,1,64.53,55.88Z" transform="translate(-36.34 -28.37)" style="fill:#233833"/><path d="M89,55.88A1.88,1.88,0,1,1,87.08,54,1.88,1.88,0,0,1,89,55.88Z" transform="translate(-36.34 -28.37)" style="fill:#233833"/><path d="M113.39,55.88A1.88,1.88,0,1,1,111.51,54,1.88,1.88,0,0,1,113.39,55.88Z" transform="translate(-36.34 -28.37)" style="fill:#233833"/><path d="M40.1,81.52a1.88,1.88,0,1,1-1.88-1.88A1.88,1.88,0,0,1,40.1,81.52Z" transform="translate(-36.34 -28.37)" style="fill:#233833"/><path d="M64.53,81.52a1.88,1.88,0,1,1-1.88-1.88A1.88,1.88,0,0,1,64.53,81.52Z" transform="translate(-36.34 -28.37)" style="fill:#233833"/><path d="M89,81.52a1.88,1.88,0,1,1-1.88-1.88A1.88,1.88,0,0,1,89,81.52Z" transform="translate(-36.34 -28.37)" style="fill:#233833"/><path d="M113.39,81.52a1.88,1.88,0,1,1-1.88-1.88A1.88,1.88,0,0,1,113.39,81.52Z" transform="translate(-36.34 -28.37)" style="fill:#233833"/><path d="M40.1,107.15a1.88,1.88,0,1,1-1.88-1.88A1.88,1.88,0,0,1,40.1,107.15Z" transform="translate(-36.34 -28.37)" style="fill:#233833"/><path d="M64.53,107.15a1.88,1.88,0,1,1-1.88-1.88A1.88,1.88,0,0,1,64.53,107.15Z" transform="translate(-36.34 -28.37)" style="fill:#233833"/><path d="M89,107.15a1.88,1.88,0,1,1-1.88-1.88A1.88,1.88,0,0,1,89,107.15Z" transform="translate(-36.34 -28.37)" style="fill:#233833"/><path d="M113.39,107.15a1.88,1.88,0,1,1-1.88-1.88A1.88,1.88,0,0,1,113.39,107.15Z" transform="translate(-36.34 -28.37)" style="fill:#233833"/></svg>