<?xml version="1.0" standalone="no"?>
<svg xmlns:xlink="http://www.w3.org/1999/xlink" id="wave" style="transform:rotate(0deg); transition: 0.3s" viewBox="0 0 1440 140" version="1.1" xmlns="http://www.w3.org/2000/svg"><defs><linearGradient id="sw-gradient-0" x1="0" x2="0" y1="1" y2="0"><stop stop-color="rgba(253, 110, 73, 1)" offset="0%"/><stop stop-color="rgba(253, 110, 73, 1)" offset="100%"/></linearGradient></defs><path style="transform:translate(0, 0px); opacity:1" fill="url(#sw-gradient-0)" d="M0,98L60,81.7C120,65,240,33,360,23.3C480,14,600,28,720,44.3C840,61,960,79,1080,91C1200,103,1320,107,1440,93.3C1560,79,1680,47,1800,35C1920,23,2040,33,2160,49C2280,65,2400,89,2520,102.7C2640,117,2760,121,2880,121.3C3000,121,3120,117,3240,98C3360,79,3480,47,3600,46.7C3720,47,3840,79,3960,77C4080,75,4200,37,4320,18.7C4440,0,4560,0,4680,14C4800,28,4920,56,5040,56C5160,56,5280,28,5400,16.3C5520,5,5640,9,5760,25.7C5880,42,6000,70,6120,72.3C6240,75,6360,51,6480,49C6600,47,6720,65,6840,65.3C6960,65,7080,47,7200,39.7C7320,33,7440,37,7560,37.3C7680,37,7800,33,7920,32.7C8040,33,8160,37,8280,35C8400,33,8520,23,8580,18.7L8640,14L8640,140L8580,140C8520,140,8400,140,8280,140C8160,140,8040,140,7920,140C7800,140,7680,140,7560,140C7440,140,7320,140,7200,140C7080,140,6960,140,6840,140C6720,140,6600,140,6480,140C6360,140,6240,140,6120,140C6000,140,5880,140,5760,140C5640,140,5520,140,5400,140C5280,140,5160,140,5040,140C4920,140,4800,140,4680,140C4560,140,4440,140,4320,140C4200,140,4080,140,3960,140C3840,140,3720,140,3600,140C3480,140,3360,140,3240,140C3120,140,3000,140,2880,140C2760,140,2640,140,2520,140C2400,140,2280,140,2160,140C2040,140,1920,140,1800,140C1680,140,1560,140,1440,140C1320,140,1200,140,1080,140C960,140,840,140,720,140C600,140,480,140,360,140C240,140,120,140,60,140L0,140Z"/></svg>